<?xml version="1.0" standalone="no"?>
<svg version="1.0" xmlns="http://www.w3.org/2000/svg"
 width="480.000000pt" height="480.000000pt" viewBox="0 0 480.000000 480.000000"
 preserveAspectRatio="xMidYMid meet">

<g transform="translate(0.000000,480.000000) scale(0.100000,-0.100000)"
fill="#212529" stroke="none">
<path d="M2205 4480 c-209 -38 -422 -141 -574 -278 -14 -13 -30 -27 -36 -30
-21 -14 -113 -129 -157 -197 -85 -130 -138 -259 -168 -405 -18 -84 -20 -137
-20 -470 0 -206 5 -393 10 -415 5 -22 12 -112 15 -200 4 -88 11 -180 16 -205
5 -25 14 -115 19 -200 6 -85 14 -182 19 -215 5 -33 10 -91 10 -130 1 -38 6
-89 11 -113 6 -23 14 -97 20 -165 9 -123 26 -273 35 -314 4 -16 13 -23 29 -23
30 0 19 -34 151 475 154 595 145 566 172 578 16 7 27 7 34 0 11 -11 59 -189
79 -293 6 -36 16 -78 21 -95 5 -16 22 -93 39 -170 16 -77 61 -279 100 -450 39
-171 84 -371 101 -445 16 -74 36 -166 45 -205 37 -167 43 -185 69 -185 13 0
31 71 40 160 4 30 13 98 20 150 7 52 21 149 30 215 15 113 28 201 56 390 6 44
15 108 18 143 4 39 12 67 21 72 44 28 48 21 202 -475 22 -71 68 -215 103 -320
34 -104 66 -206 70 -225 4 -19 18 -59 31 -88 41 -94 48 -71 56 184 4 126 11
276 17 334 6 58 11 191 11 295 1 307 25 675 45 682 27 8 37 -16 157 -362 26
-77 55 -164 63 -193 8 -30 24 -75 34 -100 10 -26 36 -96 57 -156 55 -154 69
-153 59 5 -18 262 -9 792 16 984 6 44 15 116 19 160 26 237 97 619 163 875 19
73 22 111 22 275 -1 145 -5 207 -18 263 -85 357 -341 661 -675 805 -153 65
-222 79 -422 82 -102 2 -207 0 -235 -5z m353 -196 c208 -43 421 -182 547 -359
118 -165 171 -345 161 -550 -6 -134 -22 -206 -71 -312 -65 -142 -166 -267
-281 -349 -34 -24 -64 -44 -66 -44 -3 0 -8 27 -11 59 -10 117 -90 225 -207
279 -79 37 -201 37 -282 0 -75 -35 -138 -94 -174 -165 -26 -52 -29 -67 -29
-156 l0 -98 -25 6 c-43 10 -146 62 -207 103 -67 46 -167 145 -219 217 -172
240 -208 566 -92 838 19 43 22 46 37 33 31 -28 106 -56 151 -56 49 0 122 29
159 63 36 33 71 115 71 167 0 53 -35 134 -74 169 -25 24 -25 25 -6 38 68 48
228 109 330 126 62 10 218 6 288 -9z m-650 -219 c58 -66 55 -152 -8 -215 -50
-50 -107 -61 -171 -33 -74 33 -76 40 -20 120 55 78 136 163 156 163 7 0 27
-16 43 -35z m688 -1163 c87 -45 134 -122 134 -221 0 -52 -3 -63 -22 -75 -46
-29 -144 -47 -285 -53 l-143 -6 -16 39 c-10 22 -17 66 -17 99 -1 179 192 298
349 217z"/>
<path d="M2425 4106 c-130 -58 -140 -241 -17 -313 176 -104 356 112 224 269
-46 55 -138 75 -207 44z"/>
<path d="M2823 3609 c-112 -20 -183 -106 -183 -221 1 -96 61 -181 149 -213 61
-21 108 -19 167 9 124 58 169 202 100 321 -47 79 -138 120 -233 104z"/>
<path d="M1845 3196 c-87 -38 -94 -166 -13 -216 85 -51 188 3 190 100 1 95
-89 154 -177 116z"/>
</g>
</svg>
